<?xml version="1.0" encoding="UTF-8" standalone="no"?>
<!DOCTYPE svg PUBLIC "-//W3C//DTD SVG 1.1//EN"
 "http://www.w3.org/Graphics/SVG/1.1/DTD/svg11.dtd">
<!-- Generated by graphviz version 2.40.1 (20161225.0304)
 -->
<!-- Title: dependencies Pages: 1 -->
<svg width="936pt" height="284pt"
 viewBox="0.00 0.00 936.00 284.00" xmlns="http://www.w3.org/2000/svg" xmlns:xlink="http://www.w3.org/1999/xlink">
<g id="graph0" class="graph" transform="scale(1 1) rotate(0) translate(4 280)">
<title>dependencies</title>
<polygon fill="#ffffff" stroke="transparent" points="-4,4 -4,-280 932,-280 932,4 -4,4"/>
<text text-anchor="start" x="443.0091" y="-42.4" font-family="sans-serif" font-weight="bold" font-size="14.00" fill="#000000">Legend</text>
<polygon fill="#ffffb3" stroke="transparent" points="230,-10 230,-30 250,-30 250,-10 230,-10"/>
<text text-anchor="start" x="253.629" y="-15.4" font-family="sans-serif" font-size="14.00" fill="#000000"> &#160;Declarations</text>
<polygon fill="#8dd3c7" stroke="transparent" points="343,-10 343,-30 363,-30 363,-10 343,-10"/>
<text text-anchor="start" x="366.7251" y="-15.4" font-family="sans-serif" font-size="14.00" fill="#000000"> &#160;Module</text>
<polygon fill="#80b1d3" stroke="transparent" points="429,-10 429,-30 449,-30 449,-10 429,-10"/>
<text text-anchor="start" x="452.7812" y="-15.4" font-family="sans-serif" font-size="14.00" fill="#000000"> &#160;Bootstrap</text>
<polygon fill="#fdb462" stroke="transparent" points="526,-10 526,-30 546,-30 546,-10 526,-10"/>
<text text-anchor="start" x="549.6732" y="-15.4" font-family="sans-serif" font-size="14.00" fill="#000000"> &#160;Providers</text>
<polygon fill="#fb8072" stroke="transparent" points="622,-10 622,-30 642,-30 642,-10 622,-10"/>
<text text-anchor="start" x="645.7258" y="-15.4" font-family="sans-serif" font-size="14.00" fill="#000000"> &#160;Exports</text>
<g id="clust1" class="cluster">
<title>cluster_AppModule</title>
<polygon fill="none" stroke="#000000" stroke-dasharray="1,5" points="8,-70 8,-268 920,-268 920,-70 8,-70"/>
</g>
<g id="clust2" class="cluster">
<title>cluster_AppModule_declarations</title>
<polygon fill="none" stroke="#000000" points="790,-78 790,-130 912,-130 912,-78 790,-78"/>
</g>
<g id="clust4" class="cluster">
<title>cluster_AppModule_imports</title>
<polygon fill="none" stroke="#000000" points="154,-78 154,-130 782,-130 782,-78 154,-78"/>
</g>
<g id="clust6" class="cluster">
<title>cluster_AppModule_bootstrap</title>
<polygon fill="none" stroke="#000000" points="401,-208 401,-260 525,-260 525,-208 401,-208"/>
</g>
<g id="clust7" class="cluster">
<title>cluster_AppModule_providers</title>
<polygon fill="none" stroke="#000000" points="16,-78 16,-130 146,-130 146,-78 16,-78"/>
</g>
<!-- AppComponent -->
<g id="node1" class="node">
<title>AppComponent</title>
<polygon fill="#ffffb3" stroke="#000000" points="903.9399,-122 798.0601,-122 798.0601,-86 903.9399,-86 903.9399,-122"/>
<text text-anchor="middle" x="851" y="-99.8" font-family="Times,serif" font-size="14.00" fill="#000000">AppComponent</text>
</g>
<!-- AppModule -->
<g id="node2" class="node">
<title>AppModule</title>
<polygon fill="#8dd3c7" stroke="#000000" points="504.6571,-187 501.6571,-191 480.6571,-191 477.6571,-187 421.3429,-187 421.3429,-151 504.6571,-151 504.6571,-187"/>
<text text-anchor="middle" x="463" y="-164.8" font-family="Times,serif" font-size="14.00" fill="#000000">AppModule</text>
</g>
<!-- AppComponent&#45;&gt;AppModule -->
<g id="edge1" class="edge">
<title>AppComponent&#45;&gt;AppModule</title>
<path fill="none" stroke="#000000" d="M851,-122.2921C851,-144.2057 851,-178 851,-178 851,-178 514.8914,-178 514.8914,-178"/>
<polygon fill="#000000" stroke="#000000" points="514.8915,-174.5001 504.8914,-178 514.8914,-181.5001 514.8915,-174.5001"/>
</g>
<!-- AppComponent  -->
<g id="node8" class="node">
<title>AppComponent </title>
<polygon fill="#80b1d3" stroke="#000000" points="517.439,-252 408.561,-252 408.561,-216 517.439,-216 517.439,-252"/>
<text text-anchor="middle" x="463" y="-229.8" font-family="Times,serif" font-size="14.00" fill="#000000">AppComponent </text>
</g>
<!-- AppModule&#45;&gt;AppComponent  -->
<g id="edge7" class="edge">
<title>AppModule&#45;&gt;AppComponent </title>
<path fill="none" stroke="#000000" stroke-dasharray="1,5" d="M463,-187.1061C463,-187.1061 463,-205.991 463,-205.991"/>
<polygon fill="#000000" stroke="#000000" points="459.5001,-205.9909 463,-215.991 466.5001,-205.991 459.5001,-205.9909"/>
</g>
<!-- AppRoutingModule -->
<g id="node3" class="node">
<title>AppRoutingModule</title>
<polygon fill="#8dd3c7" stroke="#000000" points="774.2744,-122 771.2744,-126 750.2744,-126 747.2744,-122 645.7256,-122 645.7256,-86 774.2744,-86 774.2744,-122"/>
<text text-anchor="middle" x="710" y="-99.8" font-family="Times,serif" font-size="14.00" fill="#000000">AppRoutingModule</text>
</g>
<!-- AppRoutingModule&#45;&gt;AppModule -->
<g id="edge2" class="edge">
<title>AppRoutingModule&#45;&gt;AppModule</title>
<path fill="none" stroke="#000000" d="M710,-122.1061C710,-141.3391 710,-169 710,-169 710,-169 514.9002,-169 514.9002,-169"/>
<polygon fill="#000000" stroke="#000000" points="514.9002,-165.5001 504.9002,-169 514.9001,-172.5001 514.9002,-165.5001"/>
</g>
<!-- HomeModule -->
<g id="node4" class="node">
<title>HomeModule</title>
<polygon fill="#8dd3c7" stroke="#000000" points="627.7619,-122 624.7619,-126 603.7619,-126 600.7619,-122 534.2381,-122 534.2381,-86 627.7619,-86 627.7619,-122"/>
<text text-anchor="middle" x="581" y="-99.8" font-family="Times,serif" font-size="14.00" fill="#000000">HomeModule</text>
</g>
<!-- HomeModule&#45;&gt;AppModule -->
<g id="edge3" class="edge">
<title>HomeModule&#45;&gt;AppModule</title>
<path fill="none" stroke="#000000" d="M581,-122.027C581,-138.3976 581,-160 581,-160 581,-160 514.9346,-160 514.9346,-160"/>
<polygon fill="#000000" stroke="#000000" points="514.9347,-156.5001 504.9346,-160 514.9346,-163.5001 514.9347,-156.5001"/>
</g>
<!-- MaterialModule -->
<g id="node5" class="node">
<title>MaterialModule</title>
<polygon fill="#8dd3c7" stroke="#000000" points="516.4706,-122 513.4706,-126 492.4706,-126 489.4706,-122 409.5294,-122 409.5294,-86 516.4706,-86 516.4706,-122"/>
<text text-anchor="middle" x="463" y="-99.8" font-family="Times,serif" font-size="14.00" fill="#000000">MaterialModule</text>
</g>
<!-- MaterialModule&#45;&gt;AppModule -->
<g id="edge4" class="edge">
<title>MaterialModule&#45;&gt;AppModule</title>
<path fill="none" stroke="#000000" d="M463,-122.1061C463,-122.1061 463,-140.991 463,-140.991"/>
<polygon fill="#000000" stroke="#000000" points="459.5001,-140.9909 463,-150.991 466.5001,-140.991 459.5001,-140.9909"/>
</g>
<!-- PostModule -->
<g id="node6" class="node">
<title>PostModule</title>
<polygon fill="#8dd3c7" stroke="#000000" points="391.6683,-122 388.6683,-126 367.6683,-126 364.6683,-122 308.3317,-122 308.3317,-86 391.6683,-86 391.6683,-122"/>
<text text-anchor="middle" x="350" y="-99.8" font-family="Times,serif" font-size="14.00" fill="#000000">PostModule</text>
</g>
<!-- PostModule&#45;&gt;AppModule -->
<g id="edge5" class="edge">
<title>PostModule&#45;&gt;AppModule</title>
<path fill="none" stroke="#000000" d="M350,-122.027C350,-138.3976 350,-160 350,-160 350,-160 411.244,-160 411.244,-160"/>
<polygon fill="#000000" stroke="#000000" points="411.2441,-163.5001 421.244,-160 411.244,-156.5001 411.2441,-163.5001"/>
</g>
<!-- PostRoutingModule -->
<g id="node7" class="node">
<title>PostRoutingModule</title>
<polygon fill="#8dd3c7" stroke="#000000" points="290.2856,-122 287.2856,-126 266.2856,-126 263.2856,-122 161.7144,-122 161.7144,-86 290.2856,-86 290.2856,-122"/>
<text text-anchor="middle" x="226" y="-99.8" font-family="Times,serif" font-size="14.00" fill="#000000">PostRoutingModule</text>
</g>
<!-- PostRoutingModule&#45;&gt;AppModule -->
<g id="edge6" class="edge">
<title>PostRoutingModule&#45;&gt;AppModule</title>
<path fill="none" stroke="#000000" d="M226,-122.1061C226,-141.3391 226,-169 226,-169 226,-169 411.1747,-169 411.1747,-169"/>
<polygon fill="#000000" stroke="#000000" points="411.1747,-172.5001 421.1747,-169 411.1747,-165.5001 411.1747,-172.5001"/>
</g>
<!-- PostService -->
<g id="node9" class="node">
<title>PostService</title>
<ellipse fill="#fdb462" stroke="#000000" cx="81" cy="-104" rx="56.7561" ry="18"/>
<text text-anchor="middle" x="81" y="-99.8" font-family="Times,serif" font-size="14.00" fill="#000000">PostService</text>
</g>
<!-- PostService&#45;&gt;AppModule -->
<g id="edge8" class="edge">
<title>PostService&#45;&gt;AppModule</title>
<path fill="none" stroke="#000000" d="M81,-122.2921C81,-144.2057 81,-178 81,-178 81,-178 411.0266,-178 411.0266,-178"/>
<polygon fill="#000000" stroke="#000000" points="411.0266,-181.5001 421.0266,-178 411.0266,-174.5001 411.0266,-181.5001"/>
</g>
</g>
</svg>
