<?xml version="1.0" encoding="UTF-8" standalone="no"?>
<!DOCTYPE svg PUBLIC "-//W3C//DTD SVG 1.1//EN"
 "http://www.w3.org/Graphics/SVG/1.1/DTD/svg11.dtd">
<!-- Generated by graphviz version 2.40.1 (20161225.0304)
 -->
<!-- Title: dependencies Pages: 1 -->
<svg width="517pt" height="284pt"
 viewBox="0.00 0.00 517.00 284.00" xmlns="http://www.w3.org/2000/svg" xmlns:xlink="http://www.w3.org/1999/xlink">
<g id="graph0" class="graph" transform="scale(1 1) rotate(0) translate(4 280)">
<title>dependencies</title>
<polygon fill="#ffffff" stroke="transparent" points="-4,4 -4,-280 513,-280 513,4 -4,4"/>
<text text-anchor="start" x="233.5091" y="-42.4" font-family="sans-serif" font-weight="bold" font-size="14.00" fill="#000000">Legend</text>
<polygon fill="#ffffb3" stroke="transparent" points="20.5,-10 20.5,-30 40.5,-30 40.5,-10 20.5,-10"/>
<text text-anchor="start" x="44.129" y="-15.4" font-family="sans-serif" font-size="14.00" fill="#000000"> &#160;Declarations</text>
<polygon fill="#8dd3c7" stroke="transparent" points="133.5,-10 133.5,-30 153.5,-30 153.5,-10 133.5,-10"/>
<text text-anchor="start" x="157.2251" y="-15.4" font-family="sans-serif" font-size="14.00" fill="#000000"> &#160;Module</text>
<polygon fill="#80b1d3" stroke="transparent" points="219.5,-10 219.5,-30 239.5,-30 239.5,-10 219.5,-10"/>
<text text-anchor="start" x="243.2812" y="-15.4" font-family="sans-serif" font-size="14.00" fill="#000000"> &#160;Bootstrap</text>
<polygon fill="#fdb462" stroke="transparent" points="316.5,-10 316.5,-30 336.5,-30 336.5,-10 316.5,-10"/>
<text text-anchor="start" x="340.1732" y="-15.4" font-family="sans-serif" font-size="14.00" fill="#000000"> &#160;Providers</text>
<polygon fill="#fb8072" stroke="transparent" points="412.5,-10 412.5,-30 432.5,-30 432.5,-10 412.5,-10"/>
<text text-anchor="start" x="436.2258" y="-15.4" font-family="sans-serif" font-size="14.00" fill="#000000"> &#160;Exports</text>
<g id="clust1" class="cluster">
<title>cluster_HomeModule</title>
<polygon fill="none" stroke="#000000" stroke-dasharray="1,5" points="8,-70 8,-268 501,-268 501,-70 8,-70"/>
</g>
<g id="clust2" class="cluster">
<title>cluster_HomeModule_declarations</title>
<polygon fill="none" stroke="#000000" points="178,-78 178,-130 493,-130 493,-78 178,-78"/>
</g>
<g id="clust5" class="cluster">
<title>cluster_HomeModule_imports</title>
<polygon fill="none" stroke="#000000" points="16,-78 16,-130 170,-130 170,-78 16,-78"/>
</g>
<g id="clust6" class="cluster">
<title>cluster_HomeModule_exports</title>
<polygon fill="none" stroke="#000000" points="94,-208 94,-260 416,-260 416,-208 94,-208"/>
</g>
<!-- HomeComponent -->
<g id="node1" class="node">
<title>HomeComponent</title>
<polygon fill="#ffffb3" stroke="#000000" points="484.5451,-122 369.4549,-122 369.4549,-86 484.5451,-86 484.5451,-122"/>
<text text-anchor="middle" x="427" y="-99.8" font-family="Times,serif" font-size="14.00" fill="#000000">HomeComponent</text>
</g>
<!-- HomeModule -->
<g id="node3" class="node">
<title>HomeModule</title>
<polygon fill="#8dd3c7" stroke="#000000" points="315.7619,-187 312.7619,-191 291.7619,-191 288.7619,-187 222.2381,-187 222.2381,-151 315.7619,-151 315.7619,-187"/>
<text text-anchor="middle" x="269" y="-164.8" font-family="Times,serif" font-size="14.00" fill="#000000">HomeModule</text>
</g>
<!-- HomeComponent&#45;&gt;HomeModule -->
<g id="edge1" class="edge">
<title>HomeComponent&#45;&gt;HomeModule</title>
<path fill="none" stroke="#000000" d="M388.375,-122.1061C388.375,-141.3391 388.375,-169 388.375,-169 388.375,-169 325.8375,-169 325.8375,-169"/>
<polygon fill="#000000" stroke="#000000" points="325.8376,-165.5001 315.8375,-169 325.8375,-172.5001 325.8376,-165.5001"/>
</g>
<!-- PageNonfoundComponent -->
<g id="node2" class="node">
<title>PageNonfoundComponent</title>
<polygon fill="#ffffb3" stroke="#000000" points="351.8117,-122 186.1883,-122 186.1883,-86 351.8117,-86 351.8117,-122"/>
<text text-anchor="middle" x="269" y="-99.8" font-family="Times,serif" font-size="14.00" fill="#000000">PageNonfoundComponent</text>
</g>
<!-- PageNonfoundComponent&#45;&gt;HomeModule -->
<g id="edge2" class="edge">
<title>PageNonfoundComponent&#45;&gt;HomeModule</title>
<path fill="none" stroke="#000000" d="M269,-122.1061C269,-122.1061 269,-140.991 269,-140.991"/>
<polygon fill="#000000" stroke="#000000" points="265.5001,-140.9909 269,-150.991 272.5001,-140.991 265.5001,-140.9909"/>
</g>
<!-- HomeComponent  -->
<g id="node5" class="node">
<title>HomeComponent </title>
<polygon fill="#fb8072" stroke="#000000" points="407.5442,-252 288.4558,-252 288.4558,-216 407.5442,-216 407.5442,-252"/>
<text text-anchor="middle" x="348" y="-229.8" font-family="Times,serif" font-size="14.00" fill="#000000">HomeComponent </text>
</g>
<!-- HomeModule&#45;&gt;HomeComponent  -->
<g id="edge4" class="edge">
<title>HomeModule&#45;&gt;HomeComponent </title>
<path fill="none" stroke="#000000" stroke-dasharray="5,2" d="M302.1794,-187.1061C302.1794,-187.1061 302.1794,-205.991 302.1794,-205.991"/>
<polygon fill="#000000" stroke="#000000" points="298.6794,-205.9909 302.1794,-215.991 305.6794,-205.991 298.6794,-205.9909"/>
</g>
<!-- PageNonfoundComponent  -->
<g id="node6" class="node">
<title>PageNonfoundComponent </title>
<polygon fill="#fb8072" stroke="#000000" points="270.3115,-252 101.6885,-252 101.6885,-216 270.3115,-216 270.3115,-252"/>
<text text-anchor="middle" x="186" y="-229.8" font-family="Times,serif" font-size="14.00" fill="#000000">PageNonfoundComponent </text>
</g>
<!-- HomeModule&#45;&gt;PageNonfoundComponent  -->
<g id="edge5" class="edge">
<title>HomeModule&#45;&gt;PageNonfoundComponent </title>
<path fill="none" stroke="#000000" stroke-dasharray="5,2" d="M246.2625,-187.1061C246.2625,-187.1061 246.2625,-205.991 246.2625,-205.991"/>
<polygon fill="#000000" stroke="#000000" points="242.7625,-205.9909 246.2625,-215.991 249.7625,-205.991 242.7625,-205.9909"/>
</g>
<!-- HomeRoutingModule -->
<g id="node4" class="node">
<title>HomeRoutingModule</title>
<polygon fill="#8dd3c7" stroke="#000000" points="162.3795,-122 159.3795,-126 138.3795,-126 135.3795,-122 23.6205,-122 23.6205,-86 162.3795,-86 162.3795,-122"/>
<text text-anchor="middle" x="93" y="-99.8" font-family="Times,serif" font-size="14.00" fill="#000000">HomeRoutingModule</text>
</g>
<!-- HomeRoutingModule&#45;&gt;HomeModule -->
<g id="edge3" class="edge">
<title>HomeRoutingModule&#45;&gt;HomeModule</title>
<path fill="none" stroke="#000000" d="M132.017,-122.1061C132.017,-141.3391 132.017,-169 132.017,-169 132.017,-169 211.8582,-169 211.8582,-169"/>
<polygon fill="#000000" stroke="#000000" points="211.8583,-172.5001 221.8582,-169 211.8582,-165.5001 211.8583,-172.5001"/>
</g>
</g>
</svg>
