<?xml version="1.0" encoding="UTF-8" standalone="no"?>
<!DOCTYPE svg PUBLIC "-//W3C//DTD SVG 1.1//EN"
 "http://www.w3.org/Graphics/SVG/1.1/DTD/svg11.dtd">
<!-- Generated by graphviz version 2.40.1 (20161225.0304)
 -->
<!-- Title: dependencies Pages: 1 -->
<svg width="2810pt" height="431pt"
 viewBox="0.00 0.00 2810.00 431.00" xmlns="http://www.w3.org/2000/svg" xmlns:xlink="http://www.w3.org/1999/xlink">
<g id="graph0" class="graph" transform="scale(1 1) rotate(0) translate(4 427)">
<title>dependencies</title>
<polygon fill="#ffffff" stroke="transparent" points="-4,4 -4,-427 2806,-427 2806,4 -4,4"/>
<text text-anchor="start" x="1380.0091" y="-42.4" font-family="sans-serif" font-weight="bold" font-size="14.00" fill="#000000">Legend</text>
<polygon fill="#ffffb3" stroke="transparent" points="1167,-10 1167,-30 1187,-30 1187,-10 1167,-10"/>
<text text-anchor="start" x="1190.629" y="-15.4" font-family="sans-serif" font-size="14.00" fill="#000000"> &#160;Declarations</text>
<polygon fill="#8dd3c7" stroke="transparent" points="1280,-10 1280,-30 1300,-30 1300,-10 1280,-10"/>
<text text-anchor="start" x="1303.7251" y="-15.4" font-family="sans-serif" font-size="14.00" fill="#000000"> &#160;Module</text>
<polygon fill="#80b1d3" stroke="transparent" points="1366,-10 1366,-30 1386,-30 1386,-10 1366,-10"/>
<text text-anchor="start" x="1389.7812" y="-15.4" font-family="sans-serif" font-size="14.00" fill="#000000"> &#160;Bootstrap</text>
<polygon fill="#fdb462" stroke="transparent" points="1463,-10 1463,-30 1483,-30 1483,-10 1463,-10"/>
<text text-anchor="start" x="1486.6732" y="-15.4" font-family="sans-serif" font-size="14.00" fill="#000000"> &#160;Providers</text>
<polygon fill="#fb8072" stroke="transparent" points="1559,-10 1559,-30 1579,-30 1579,-10 1559,-10"/>
<text text-anchor="start" x="1582.7258" y="-15.4" font-family="sans-serif" font-size="14.00" fill="#000000"> &#160;Exports</text>
<g id="clust1" class="cluster">
<title>cluster_AppModule</title>
<polygon fill="none" stroke="#000000" stroke-dasharray="1,5" points="18,-146 18,-415 904,-415 904,-146 18,-146"/>
</g>
<g id="clust2" class="cluster">
<title>cluster_AppModule_declarations</title>
<polygon fill="none" stroke="#000000" points="238,-219 238,-271 360,-271 360,-219 238,-219"/>
</g>
<g id="clust4" class="cluster">
<title>cluster_AppModule_imports</title>
<polygon fill="none" stroke="#000000" points="368,-154 368,-271 896,-271 896,-154 368,-154"/>
</g>
<g id="clust6" class="cluster">
<title>cluster_AppModule_bootstrap</title>
<polygon fill="none" stroke="#000000" points="145,-355 145,-407 269,-407 269,-355 145,-355"/>
</g>
<g id="clust7" class="cluster">
<title>cluster_AppModule_providers</title>
<polygon fill="none" stroke="#000000" points="26,-219 26,-271 156,-271 156,-219 26,-219"/>
</g>
<g id="clust20" class="cluster">
<title>cluster_HomeModule</title>
<polygon fill="none" stroke="#000000" stroke-dasharray="1,5" points="8,-70 8,-138 831,-138 831,-70 8,-70"/>
</g>
<g id="clust21" class="cluster">
<title>cluster_HomeModule_declarations</title>
<polygon fill="none" stroke="#000000" points="508,-78 508,-130 823,-130 823,-78 508,-78"/>
</g>
<g id="clust24" class="cluster">
<title>cluster_HomeModule_imports</title>
<polygon fill="none" stroke="#000000" points="346,-78 346,-130 500,-130 500,-78 346,-78"/>
</g>
<g id="clust25" class="cluster">
<title>cluster_HomeModule_exports</title>
<polygon fill="none" stroke="#000000" points="16,-78 16,-130 338,-130 338,-78 16,-78"/>
</g>
<g id="clust40" class="cluster">
<title>cluster_PostModule</title>
<polygon fill="none" stroke="#000000" stroke-dasharray="1,5" points="912,-279 912,-347 2794,-347 2794,-279 912,-279"/>
</g>
<g id="clust41" class="cluster">
<title>cluster_PostModule_declarations</title>
<polygon fill="none" stroke="#000000" points="1868,-287 1868,-339 2786,-339 2786,-287 1868,-287"/>
</g>
<g id="clust49" class="cluster">
<title>cluster_PostModule_exports</title>
<polygon fill="none" stroke="#000000" points="920,-287 920,-339 1860,-339 1860,-287 920,-287"/>
</g>
<!-- AppComponent -->
<g id="node1" class="node">
<title>AppComponent</title>
<polygon fill="#ffffb3" stroke="#000000" points="351.9399,-263 246.0601,-263 246.0601,-227 351.9399,-227 351.9399,-263"/>
<text text-anchor="middle" x="299" y="-240.8" font-family="Times,serif" font-size="14.00" fill="#000000">AppComponent</text>
</g>
<!-- AppModule -->
<g id="node2" class="node">
<title>AppModule</title>
<polygon fill="#8dd3c7" stroke="#000000" points="248.6571,-331 245.6571,-335 224.6571,-335 221.6571,-331 165.3429,-331 165.3429,-295 248.6571,-295 248.6571,-331"/>
<text text-anchor="middle" x="207" y="-308.8" font-family="Times,serif" font-size="14.00" fill="#000000">AppModule</text>
</g>
<!-- AppComponent&#45;&gt;AppModule -->
<g id="edge1" class="edge">
<title>AppComponent&#45;&gt;AppModule</title>
<path fill="none" stroke="#000000" d="M255.1489,-263.302C255.1489,-281.2699 255.1489,-306 255.1489,-306 255.1489,-306 254.5194,-306 254.5194,-306"/>
<polygon fill="#000000" stroke="#000000" points="258.8543,-302.5002 248.8542,-306 258.8542,-309.5002 258.8543,-302.5002"/>
</g>
<!-- AppComponent  -->
<g id="node8" class="node">
<title>AppComponent </title>
<polygon fill="#80b1d3" stroke="#000000" points="261.439,-399 152.561,-399 152.561,-363 261.439,-363 261.439,-399"/>
<text text-anchor="middle" x="207" y="-376.8" font-family="Times,serif" font-size="14.00" fill="#000000">AppComponent </text>
</g>
<!-- AppModule&#45;&gt;AppComponent  -->
<g id="edge7" class="edge">
<title>AppModule&#45;&gt;AppComponent </title>
<path fill="none" stroke="#000000" stroke-dasharray="1,5" d="M207,-331.2228C207,-331.2228 207,-352.7269 207,-352.7269"/>
<polygon fill="#000000" stroke="#000000" points="203.5001,-352.7269 207,-362.7269 210.5001,-352.727 203.5001,-352.7269"/>
</g>
<!-- AppRoutingModule -->
<g id="node3" class="node">
<title>AppRoutingModule</title>
<polygon fill="#8dd3c7" stroke="#000000" points="616.2744,-198 613.2744,-202 592.2744,-202 589.2744,-198 487.7256,-198 487.7256,-162 616.2744,-162 616.2744,-198"/>
<text text-anchor="middle" x="552" y="-175.8" font-family="Times,serif" font-size="14.00" fill="#000000">AppRoutingModule</text>
</g>
<!-- AppRoutingModule&#45;&gt;AppModule -->
<g id="edge2" class="edge">
<title>AppRoutingModule&#45;&gt;AppModule</title>
<path fill="none" stroke="#000000" d="M552,-198.215C552,-234.2102 552,-311 552,-311 552,-311 258.9589,-311 258.9589,-311"/>
<polygon fill="#000000" stroke="#000000" points="258.9589,-307.5001 248.9589,-311 258.9588,-314.5001 258.9589,-307.5001"/>
</g>
<!-- HomeModule -->
<g id="node4" class="node">
<title>HomeModule</title>
<polygon fill="#8dd3c7" stroke="#000000" points="469.7619,-198 466.7619,-202 445.7619,-202 442.7619,-198 376.2381,-198 376.2381,-162 469.7619,-162 469.7619,-198"/>
<text text-anchor="middle" x="423" y="-175.8" font-family="Times,serif" font-size="14.00" fill="#000000">HomeModule</text>
</g>
<!-- HomeModule&#45;&gt;AppModule -->
<g id="edge3" class="edge">
<title>HomeModule&#45;&gt;AppModule</title>
<path fill="none" stroke="#000000" d="M375.8877,-189C318.2892,-189 228.3792,-189 228.3792,-189 228.3792,-189 228.3792,-284.9693 228.3792,-284.9693"/>
<polygon fill="#000000" stroke="#000000" points="224.8793,-284.9693 228.3792,-294.9693 231.8793,-284.9694 224.8793,-284.9693"/>
</g>
<!-- HomeComponent  -->
<g id="node13" class="node">
<title>HomeComponent </title>
<polygon fill="#fb8072" stroke="#000000" points="329.5442,-122 210.4558,-122 210.4558,-86 329.5442,-86 329.5442,-122"/>
<text text-anchor="middle" x="270" y="-99.8" font-family="Times,serif" font-size="14.00" fill="#000000">HomeComponent </text>
</g>
<!-- HomeModule&#45;&gt;HomeComponent  -->
<g id="edge12" class="edge">
<title>HomeModule&#45;&gt;HomeComponent </title>
<path fill="none" stroke="#000000" stroke-dasharray="5,2" d="M376.1282,-171C337.1084,-171 287.9013,-171 287.9013,-171 287.9013,-171 287.9013,-132.308 287.9013,-132.308"/>
<polygon fill="#000000" stroke="#000000" points="291.4014,-132.308 287.9013,-122.308 284.4014,-132.3081 291.4014,-132.308"/>
</g>
<!-- PageNonfoundComponent  -->
<g id="node14" class="node">
<title>PageNonfoundComponent </title>
<polygon fill="#fb8072" stroke="#000000" points="192.3115,-122 23.6885,-122 23.6885,-86 192.3115,-86 192.3115,-122"/>
<text text-anchor="middle" x="108" y="-99.8" font-family="Times,serif" font-size="14.00" fill="#000000">PageNonfoundComponent </text>
</g>
<!-- HomeModule&#45;&gt;PageNonfoundComponent  -->
<g id="edge13" class="edge">
<title>HomeModule&#45;&gt;PageNonfoundComponent </title>
<path fill="none" stroke="#000000" stroke-dasharray="5,2" d="M376.212,-180C304.1551,-180 174.2498,-180 174.2498,-180 174.2498,-180 174.2498,-132.0109 174.2498,-132.0109"/>
<polygon fill="#000000" stroke="#000000" points="177.7499,-132.0109 174.2498,-122.0109 170.7499,-132.011 177.7499,-132.0109"/>
</g>
<!-- MaterialModule -->
<g id="node5" class="node">
<title>MaterialModule</title>
<polygon fill="#8dd3c7" stroke="#000000" points="741.4706,-198 738.4706,-202 717.4706,-202 714.4706,-198 634.5294,-198 634.5294,-162 741.4706,-162 741.4706,-198"/>
<text text-anchor="middle" x="688" y="-175.8" font-family="Times,serif" font-size="14.00" fill="#000000">MaterialModule</text>
</g>
<!-- MaterialModule&#45;&gt;AppModule -->
<g id="edge4" class="edge">
<title>MaterialModule&#45;&gt;AppModule</title>
<path fill="none" stroke="#000000" d="M670.1716,-198.0597C670.1716,-235.0544 670.1716,-316 670.1716,-316 670.1716,-316 258.9203,-316 258.9203,-316"/>
<polygon fill="#000000" stroke="#000000" points="258.9203,-312.5001 248.9203,-316 258.9203,-319.5001 258.9203,-312.5001"/>
</g>
<!-- PostModule -->
<g id="node6" class="node">
<title>PostModule</title>
<polygon fill="#8dd3c7" stroke="#000000" points="887.6683,-263 884.6683,-267 863.6683,-267 860.6683,-263 804.3317,-263 804.3317,-227 887.6683,-227 887.6683,-263"/>
<text text-anchor="middle" x="846" y="-240.8" font-family="Times,serif" font-size="14.00" fill="#000000">PostModule</text>
</g>
<!-- MaterialModule&#45;&gt;PostModule -->
<g id="edge20" class="edge">
<title>MaterialModule&#45;&gt;PostModule</title>
<path fill="none" stroke="#000000" d="M705.8284,-198.1061C705.8284,-217.3391 705.8284,-245 705.8284,-245 705.8284,-245 794.3234,-245 794.3234,-245"/>
<polygon fill="#000000" stroke="#000000" points="794.3235,-248.5001 804.3234,-245 794.3234,-241.5001 794.3235,-248.5001"/>
</g>
<!-- PostModule&#45;&gt;AppModule -->
<g id="edge5" class="edge">
<title>PostModule&#45;&gt;AppModule</title>
<path fill="none" stroke="#000000" d="M832.0554,-263.3802C832.0554,-287.2785 832.0554,-326 832.0554,-326 832.0554,-326 258.9822,-326 258.9822,-326"/>
<polygon fill="#000000" stroke="#000000" points="258.9823,-322.5001 248.9822,-326 258.9822,-329.5001 258.9823,-322.5001"/>
</g>
<!-- EditPostComponent  -->
<g id="node21" class="node">
<title>EditPostComponent </title>
<polygon fill="#fb8072" stroke="#000000" points="1380.2843,-331 1247.7157,-331 1247.7157,-295 1380.2843,-295 1380.2843,-331"/>
<text text-anchor="middle" x="1314" y="-308.8" font-family="Times,serif" font-size="14.00" fill="#000000">EditPostComponent </text>
</g>
<!-- PostModule&#45;&gt;EditPostComponent  -->
<g id="edge22" class="edge">
<title>PostModule&#45;&gt;EditPostComponent </title>
<path fill="none" stroke="#000000" stroke-dasharray="5,2" d="M887.9437,-257C1002.8148,-257 1314,-257 1314,-257 1314,-257 1314,-284.973 1314,-284.973"/>
<polygon fill="#000000" stroke="#000000" points="1310.5001,-284.973 1314,-294.973 1317.5001,-284.973 1310.5001,-284.973"/>
</g>
<!-- NewPostComponent  -->
<g id="node22" class="node">
<title>NewPostComponent </title>
<polygon fill="#fb8072" stroke="#000000" points="1229.8785,-331 1094.1215,-331 1094.1215,-295 1229.8785,-295 1229.8785,-331"/>
<text text-anchor="middle" x="1162" y="-308.8" font-family="Times,serif" font-size="14.00" fill="#000000">NewPostComponent </text>
</g>
<!-- PostModule&#45;&gt;NewPostComponent  -->
<g id="edge23" class="edge">
<title>PostModule&#45;&gt;NewPostComponent </title>
<path fill="none" stroke="#000000" stroke-dasharray="5,2" d="M887.9624,-260C973.9205,-260 1162,-260 1162,-260 1162,-260 1162,-284.7604 1162,-284.7604"/>
<polygon fill="#000000" stroke="#000000" points="1158.5001,-284.7604 1162,-294.7604 1165.5001,-284.7604 1158.5001,-284.7604"/>
</g>
<!-- PostDetailsComponent  -->
<g id="node23" class="node">
<title>PostDetailsComponent </title>
<polygon fill="#fb8072" stroke="#000000" points="1076.1029,-331 927.8971,-331 927.8971,-295 1076.1029,-295 1076.1029,-331"/>
<text text-anchor="middle" x="1002" y="-308.8" font-family="Times,serif" font-size="14.00" fill="#000000">PostDetailsComponent </text>
</g>
<!-- PostModule&#45;&gt;PostDetailsComponent  -->
<g id="edge24" class="edge">
<title>PostModule&#45;&gt;PostDetailsComponent </title>
<path fill="none" stroke="#000000" stroke-dasharray="5,2" d="M859.9446,-263.027C859.9446,-279.3976 859.9446,-301 859.9446,-301 859.9446,-301 917.644,-301 917.644,-301"/>
<polygon fill="#000000" stroke="#000000" points="917.644,-304.5001 927.644,-301 917.6439,-297.5001 917.644,-304.5001"/>
</g>
<!-- PostFormComponent  -->
<g id="node24" class="node">
<title>PostFormComponent </title>
<polygon fill="#fb8072" stroke="#000000" points="1851.7843,-331 1712.2157,-331 1712.2157,-295 1851.7843,-295 1851.7843,-331"/>
<text text-anchor="middle" x="1782" y="-308.8" font-family="Times,serif" font-size="14.00" fill="#000000">PostFormComponent </text>
</g>
<!-- PostModule&#45;&gt;PostFormComponent  -->
<g id="edge25" class="edge">
<title>PostModule&#45;&gt;PostFormComponent </title>
<path fill="none" stroke="#000000" stroke-dasharray="5,2" d="M887.7309,-248C1069.3684,-248 1782,-248 1782,-248 1782,-248 1782,-284.8939 1782,-284.8939"/>
<polygon fill="#000000" stroke="#000000" points="1778.5001,-284.8938 1782,-294.8939 1785.5001,-284.8939 1778.5001,-284.8938"/>
</g>
<!-- PostListComponent  -->
<g id="node25" class="node">
<title>PostListComponent </title>
<polygon fill="#fb8072" stroke="#000000" points="1694.2289,-331 1563.7711,-331 1563.7711,-295 1694.2289,-295 1694.2289,-331"/>
<text text-anchor="middle" x="1629" y="-308.8" font-family="Times,serif" font-size="14.00" fill="#000000">PostListComponent </text>
</g>
<!-- PostModule&#45;&gt;PostListComponent  -->
<g id="edge26" class="edge">
<title>PostModule&#45;&gt;PostListComponent </title>
<path fill="none" stroke="#000000" stroke-dasharray="5,2" d="M887.8207,-251C1050.0773,-251 1629,-251 1629,-251 1629,-251 1629,-284.7333 1629,-284.7333"/>
<polygon fill="#000000" stroke="#000000" points="1625.5001,-284.7333 1629,-294.7333 1632.5001,-284.7333 1625.5001,-284.7333"/>
</g>
<!-- SearchPostComponent  -->
<g id="node26" class="node">
<title>SearchPostComponent </title>
<polygon fill="#fb8072" stroke="#000000" points="1545.5372,-331 1398.4628,-331 1398.4628,-295 1545.5372,-295 1545.5372,-331"/>
<text text-anchor="middle" x="1472" y="-308.8" font-family="Times,serif" font-size="14.00" fill="#000000">SearchPostComponent </text>
</g>
<!-- PostModule&#45;&gt;SearchPostComponent  -->
<g id="edge27" class="edge">
<title>PostModule&#45;&gt;SearchPostComponent </title>
<path fill="none" stroke="#000000" stroke-dasharray="5,2" d="M888.0457,-254C1028.4026,-254 1472,-254 1472,-254 1472,-254 1472,-284.9775 1472,-284.9775"/>
<polygon fill="#000000" stroke="#000000" points="1468.5001,-284.9774 1472,-294.9775 1475.5001,-284.9775 1468.5001,-284.9774"/>
</g>
<!-- PostRoutingModule -->
<g id="node7" class="node">
<title>PostRoutingModule</title>
<polygon fill="#8dd3c7" stroke="#000000" points="888.2856,-198 885.2856,-202 864.2856,-202 861.2856,-198 759.7144,-198 759.7144,-162 888.2856,-162 888.2856,-198"/>
<text text-anchor="middle" x="824" y="-175.8" font-family="Times,serif" font-size="14.00" fill="#000000">PostRoutingModule</text>
</g>
<!-- PostRoutingModule&#45;&gt;AppModule -->
<g id="edge6" class="edge">
<title>PostRoutingModule&#45;&gt;AppModule</title>
<path fill="none" stroke="#000000" d="M781.8868,-198.1446C781.8868,-236.2265 781.8868,-321 781.8868,-321 781.8868,-321 258.8075,-321 258.8075,-321"/>
<polygon fill="#000000" stroke="#000000" points="258.8075,-317.5001 248.8075,-321 258.8075,-324.5001 258.8075,-317.5001"/>
</g>
<!-- PostRoutingModule&#45;&gt;PostModule -->
<g id="edge21" class="edge">
<title>PostRoutingModule&#45;&gt;PostModule</title>
<path fill="none" stroke="#000000" d="M846,-198.1061C846,-198.1061 846,-216.991 846,-216.991"/>
<polygon fill="#000000" stroke="#000000" points="842.5001,-216.9909 846,-226.991 849.5001,-216.991 842.5001,-216.9909"/>
</g>
<!-- PostService -->
<g id="node9" class="node">
<title>PostService</title>
<ellipse fill="#fdb462" stroke="#000000" cx="91" cy="-245" rx="56.7561" ry="18"/>
<text text-anchor="middle" x="91" y="-240.8" font-family="Times,serif" font-size="14.00" fill="#000000">PostService</text>
</g>
<!-- PostService&#45;&gt;AppModule -->
<g id="edge8" class="edge">
<title>PostService&#45;&gt;AppModule</title>
<path fill="none" stroke="#000000" d="M147.6314,-245C166.7429,-245 183.3277,-245 183.3277,-245 183.3277,-245 183.3277,-284.7772 183.3277,-284.7772"/>
<polygon fill="#000000" stroke="#000000" points="179.8278,-284.7772 183.3277,-294.7772 186.8278,-284.7773 179.8278,-284.7772"/>
</g>
<!-- HomeComponent -->
<g id="node10" class="node">
<title>HomeComponent</title>
<polygon fill="#ffffb3" stroke="#000000" points="814.5451,-122 699.4549,-122 699.4549,-86 814.5451,-86 814.5451,-122"/>
<text text-anchor="middle" x="757" y="-99.8" font-family="Times,serif" font-size="14.00" fill="#000000">HomeComponent</text>
</g>
<!-- HomeComponent&#45;&gt;HomeModule -->
<g id="edge9" class="edge">
<title>HomeComponent&#45;&gt;HomeModule</title>
<path fill="none" stroke="#000000" d="M720.3566,-122.0439C720.3566,-134.5633 720.3566,-149 720.3566,-149 720.3566,-149 446.4404,-149 446.4404,-149 446.4404,-149 446.4404,-151.9672 446.4404,-151.9672"/>
<polygon fill="#000000" stroke="#000000" points="442.9405,-151.9671 446.4404,-161.9672 449.9405,-151.9672 442.9405,-151.9671"/>
</g>
<!-- PageNonfoundComponent -->
<g id="node11" class="node">
<title>PageNonfoundComponent</title>
<polygon fill="#ffffb3" stroke="#000000" points="681.8117,-122 516.1883,-122 516.1883,-86 681.8117,-86 681.8117,-122"/>
<text text-anchor="middle" x="599" y="-99.8" font-family="Times,serif" font-size="14.00" fill="#000000">PageNonfoundComponent</text>
</g>
<!-- PageNonfoundComponent&#45;&gt;HomeModule -->
<g id="edge10" class="edge">
<title>PageNonfoundComponent&#45;&gt;HomeModule</title>
<path fill="none" stroke="#000000" d="M566.3657,-122.2434C566.3657,-129.4297 566.3657,-136 566.3657,-136 566.3657,-136 423,-136 423,-136 423,-136 423,-151.8495 423,-151.8495"/>
<polygon fill="#000000" stroke="#000000" points="419.5001,-151.8494 423,-161.8495 426.5001,-151.8495 419.5001,-151.8494"/>
</g>
<!-- HomeRoutingModule -->
<g id="node12" class="node">
<title>HomeRoutingModule</title>
<polygon fill="#8dd3c7" stroke="#000000" points="492.3795,-122 489.3795,-126 468.3795,-126 465.3795,-122 353.6205,-122 353.6205,-86 492.3795,-86 492.3795,-122"/>
<text text-anchor="middle" x="423" y="-99.8" font-family="Times,serif" font-size="14.00" fill="#000000">HomeRoutingModule</text>
</g>
<!-- HomeRoutingModule&#45;&gt;HomeModule -->
<g id="edge11" class="edge">
<title>HomeRoutingModule&#45;&gt;HomeModule</title>
<path fill="none" stroke="#000000" d="M399.5596,-122.0109C399.5596,-122.0109 399.5596,-151.855 399.5596,-151.855"/>
<polygon fill="#000000" stroke="#000000" points="396.0597,-151.8549 399.5596,-161.855 403.0597,-151.855 396.0597,-151.8549"/>
</g>
<!-- EditPostComponent -->
<g id="node15" class="node">
<title>EditPostComponent</title>
<polygon fill="#ffffb3" stroke="#000000" points="2317.2842,-331 2188.7158,-331 2188.7158,-295 2317.2842,-295 2317.2842,-331"/>
<text text-anchor="middle" x="2253" y="-308.8" font-family="Times,serif" font-size="14.00" fill="#000000">EditPostComponent</text>
</g>
<!-- EditPostComponent&#45;&gt;PostModule -->
<g id="edge14" class="edge">
<title>EditPostComponent&#45;&gt;PostModule</title>
<path fill="none" stroke="#000000" d="M2253,-294.7079C2253,-272.7943 2253,-239 2253,-239 2253,-239 897.727,-239 897.727,-239"/>
<polygon fill="#000000" stroke="#000000" points="897.727,-235.5001 887.727,-239 897.7269,-242.5001 897.727,-235.5001"/>
</g>
<!-- NewPostComponent -->
<g id="node16" class="node">
<title>NewPostComponent</title>
<polygon fill="#ffffb3" stroke="#000000" points="2170.8781,-331 2039.1219,-331 2039.1219,-295 2170.8781,-295 2170.8781,-331"/>
<text text-anchor="middle" x="2105" y="-308.8" font-family="Times,serif" font-size="14.00" fill="#000000">NewPostComponent</text>
</g>
<!-- NewPostComponent&#45;&gt;PostModule -->
<g id="edge15" class="edge">
<title>NewPostComponent&#45;&gt;PostModule</title>
<path fill="none" stroke="#000000" d="M2105,-294.7157C2105,-273.6789 2105,-242 2105,-242 2105,-242 897.8892,-242 897.8892,-242"/>
<polygon fill="#000000" stroke="#000000" points="897.8892,-238.5001 887.8892,-242 897.8891,-245.5001 897.8892,-238.5001"/>
</g>
<!-- PostDetailsComponent -->
<g id="node17" class="node">
<title>PostDetailsComponent</title>
<polygon fill="#ffffb3" stroke="#000000" points="2021.6024,-331 1876.3976,-331 1876.3976,-295 2021.6024,-295 2021.6024,-331"/>
<text text-anchor="middle" x="1949" y="-308.8" font-family="Times,serif" font-size="14.00" fill="#000000">PostDetailsComponent</text>
</g>
<!-- PostDetailsComponent&#45;&gt;PostModule -->
<g id="edge16" class="edge">
<title>PostDetailsComponent&#45;&gt;PostModule</title>
<path fill="none" stroke="#000000" d="M1949,-294.7772C1949,-274.6348 1949,-245 1949,-245 1949,-245 897.892,-245 897.892,-245"/>
<polygon fill="#000000" stroke="#000000" points="897.8921,-241.5001 887.892,-245 897.892,-248.5001 897.8921,-241.5001"/>
</g>
<!-- PostFormComponent -->
<g id="node18" class="node">
<title>PostFormComponent</title>
<polygon fill="#ffffb3" stroke="#000000" points="2777.7842,-331 2642.2158,-331 2642.2158,-295 2777.7842,-295 2777.7842,-331"/>
<text text-anchor="middle" x="2710" y="-308.8" font-family="Times,serif" font-size="14.00" fill="#000000">PostFormComponent</text>
</g>
<!-- PostFormComponent&#45;&gt;PostModule -->
<g id="edge17" class="edge">
<title>PostFormComponent&#45;&gt;PostModule</title>
<path fill="none" stroke="#000000" d="M2710,-294.9902C2710,-270.5793 2710,-230 2710,-230 2710,-230 897.989,-230 897.989,-230"/>
<polygon fill="#000000" stroke="#000000" points="897.9891,-226.5001 887.989,-230 897.989,-233.5001 897.9891,-226.5001"/>
</g>
<!-- PostListComponent -->
<g id="node19" class="node">
<title>PostListComponent</title>
<polygon fill="#ffffb3" stroke="#000000" points="2623.7288,-331 2496.2712,-331 2496.2712,-295 2623.7288,-295 2623.7288,-331"/>
<text text-anchor="middle" x="2560" y="-308.8" font-family="Times,serif" font-size="14.00" fill="#000000">PostListComponent</text>
</g>
<!-- PostListComponent&#45;&gt;PostModule -->
<g id="edge18" class="edge">
<title>PostListComponent&#45;&gt;PostModule</title>
<path fill="none" stroke="#000000" d="M2560,-294.8468C2560,-271.2434 2560,-233 2560,-233 2560,-233 897.9431,-233 897.9431,-233"/>
<polygon fill="#000000" stroke="#000000" points="897.9432,-229.5001 887.9431,-233 897.9431,-236.5001 897.9432,-229.5001"/>
</g>
<!-- SearchPostComponent -->
<g id="node20" class="node">
<title>SearchPostComponent</title>
<polygon fill="#ffffb3" stroke="#000000" points="2478.5379,-331 2335.4621,-331 2335.4621,-295 2478.5379,-295 2478.5379,-331"/>
<text text-anchor="middle" x="2407" y="-308.8" font-family="Times,serif" font-size="14.00" fill="#000000">SearchPostComponent</text>
</g>
<!-- SearchPostComponent&#45;&gt;PostModule -->
<g id="edge19" class="edge">
<title>SearchPostComponent&#45;&gt;PostModule</title>
<path fill="none" stroke="#000000" d="M2407,-294.7521C2407,-271.9821 2407,-236 2407,-236 2407,-236 897.753,-236 897.753,-236"/>
<polygon fill="#000000" stroke="#000000" points="897.753,-232.5001 887.753,-236 897.7529,-239.5001 897.753,-232.5001"/>
</g>
</g>
</svg>
