<?xml version="1.0" encoding="UTF-8" standalone="no"?>
<!DOCTYPE svg PUBLIC "-//W3C//DTD SVG 1.1//EN"
 "http://www.w3.org/Graphics/SVG/1.1/DTD/svg11.dtd">
<!-- Generated by graphviz version 2.40.1 (20161225.0304)
 -->
<!-- Title: dependencies Pages: 1 -->
<svg width="1234pt" height="284pt"
 viewBox="0.00 0.00 1234.00 284.00" xmlns="http://www.w3.org/2000/svg" xmlns:xlink="http://www.w3.org/1999/xlink">
<g id="graph0" class="graph" transform="scale(1 1) rotate(0) translate(4 280)">
<title>dependencies</title>
<polygon fill="#ffffff" stroke="transparent" points="-4,4 -4,-280 1230,-280 1230,4 -4,4"/>
<text text-anchor="start" x="592.0091" y="-42.4" font-family="sans-serif" font-weight="bold" font-size="14.00" fill="#000000">Legend</text>
<polygon fill="#ffffb3" stroke="transparent" points="379,-10 379,-30 399,-30 399,-10 379,-10"/>
<text text-anchor="start" x="402.629" y="-15.4" font-family="sans-serif" font-size="14.00" fill="#000000"> &#160;Declarations</text>
<polygon fill="#8dd3c7" stroke="transparent" points="492,-10 492,-30 512,-30 512,-10 492,-10"/>
<text text-anchor="start" x="515.7251" y="-15.4" font-family="sans-serif" font-size="14.00" fill="#000000"> &#160;Module</text>
<polygon fill="#80b1d3" stroke="transparent" points="578,-10 578,-30 598,-30 598,-10 578,-10"/>
<text text-anchor="start" x="601.7812" y="-15.4" font-family="sans-serif" font-size="14.00" fill="#000000"> &#160;Bootstrap</text>
<polygon fill="#fdb462" stroke="transparent" points="675,-10 675,-30 695,-30 695,-10 675,-10"/>
<text text-anchor="start" x="698.6732" y="-15.4" font-family="sans-serif" font-size="14.00" fill="#000000"> &#160;Providers</text>
<polygon fill="#fb8072" stroke="transparent" points="771,-10 771,-30 791,-30 791,-10 771,-10"/>
<text text-anchor="start" x="794.7258" y="-15.4" font-family="sans-serif" font-size="14.00" fill="#000000"> &#160;Exports</text>
<g id="clust1" class="cluster">
<title>cluster_PostModule</title>
<polygon fill="none" stroke="#000000" stroke-dasharray="1,5" points="8,-70 8,-268 1218,-268 1218,-70 8,-70"/>
</g>
<g id="clust2" class="cluster">
<title>cluster_PostModule_declarations</title>
<polygon fill="none" stroke="#000000" points="293,-78 293,-130 1210,-130 1210,-78 293,-78"/>
</g>
<g id="clust9" class="cluster">
<title>cluster_PostModule_imports</title>
<polygon fill="none" stroke="#000000" points="16,-78 16,-130 285,-130 285,-78 16,-78"/>
</g>
<g id="clust10" class="cluster">
<title>cluster_PostModule_exports</title>
<polygon fill="none" stroke="#000000" points="121,-208 121,-260 1061,-260 1061,-208 121,-208"/>
</g>
<!-- EditPostComponent -->
<g id="node1" class="node">
<title>EditPostComponent</title>
<polygon fill="#ffffb3" stroke="#000000" points="1202.2842,-122 1073.7158,-122 1073.7158,-86 1202.2842,-86 1202.2842,-122"/>
<text text-anchor="middle" x="1138" y="-99.8" font-family="Times,serif" font-size="14.00" fill="#000000">EditPostComponent</text>
</g>
<!-- PostModule -->
<g id="node7" class="node">
<title>PostModule</title>
<polygon fill="#8dd3c7" stroke="#000000" points="635.6683,-187 632.6683,-191 611.6683,-191 608.6683,-187 552.3317,-187 552.3317,-151 635.6683,-151 635.6683,-187"/>
<text text-anchor="middle" x="594" y="-164.8" font-family="Times,serif" font-size="14.00" fill="#000000">PostModule</text>
</g>
<!-- EditPostComponent&#45;&gt;PostModule -->
<g id="edge1" class="edge">
<title>EditPostComponent&#45;&gt;PostModule</title>
<path fill="none" stroke="#000000" d="M1138,-122.1061C1138,-141.3391 1138,-169 1138,-169 1138,-169 645.7835,-169 645.7835,-169"/>
<polygon fill="#000000" stroke="#000000" points="645.7835,-165.5001 635.7835,-169 645.7834,-172.5001 645.7835,-165.5001"/>
</g>
<!-- NewPostComponent -->
<g id="node2" class="node">
<title>NewPostComponent</title>
<polygon fill="#ffffb3" stroke="#000000" points="1055.8781,-122 924.1219,-122 924.1219,-86 1055.8781,-86 1055.8781,-122"/>
<text text-anchor="middle" x="990" y="-99.8" font-family="Times,serif" font-size="14.00" fill="#000000">NewPostComponent</text>
</g>
<!-- NewPostComponent&#45;&gt;PostModule -->
<g id="edge2" class="edge">
<title>NewPostComponent&#45;&gt;PostModule</title>
<path fill="none" stroke="#000000" d="M967.088,-122.0225C967.088,-139.3734 967.088,-163 967.088,-163 967.088,-163 645.7119,-163 645.7119,-163"/>
<polygon fill="#000000" stroke="#000000" points="645.712,-159.5001 635.7119,-163 645.7119,-166.5001 645.712,-159.5001"/>
</g>
<!-- PostDetailsComponent -->
<g id="node3" class="node">
<title>PostDetailsComponent</title>
<polygon fill="#ffffb3" stroke="#000000" points="906.6024,-122 761.3976,-122 761.3976,-86 906.6024,-86 906.6024,-122"/>
<text text-anchor="middle" x="834" y="-99.8" font-family="Times,serif" font-size="14.00" fill="#000000">PostDetailsComponent</text>
</g>
<!-- PostDetailsComponent&#45;&gt;PostModule -->
<g id="edge3" class="edge">
<title>PostDetailsComponent&#45;&gt;PostModule</title>
<path fill="none" stroke="#000000" d="M857.563,-122.2396C857.563,-137.5706 857.563,-157 857.563,-157 857.563,-157 645.7623,-157 645.7623,-157"/>
<polygon fill="#000000" stroke="#000000" points="645.7624,-153.5001 635.7623,-157 645.7623,-160.5001 645.7624,-153.5001"/>
</g>
<!-- PostFormComponent -->
<g id="node4" class="node">
<title>PostFormComponent</title>
<polygon fill="#ffffb3" stroke="#000000" points="743.7842,-122 608.2158,-122 608.2158,-86 743.7842,-86 743.7842,-122"/>
<text text-anchor="middle" x="676" y="-99.8" font-family="Times,serif" font-size="14.00" fill="#000000">PostFormComponent</text>
</g>
<!-- PostFormComponent&#45;&gt;PostModule -->
<g id="edge4" class="edge">
<title>PostFormComponent&#45;&gt;PostModule</title>
<path fill="none" stroke="#000000" d="M621.9709,-122.1061C621.9709,-122.1061 621.9709,-140.991 621.9709,-140.991"/>
<polygon fill="#000000" stroke="#000000" points="618.471,-140.9909 621.9709,-150.991 625.471,-140.991 618.471,-140.9909"/>
</g>
<!-- PostListComponent -->
<g id="node5" class="node">
<title>PostListComponent</title>
<polygon fill="#ffffb3" stroke="#000000" points="589.7288,-122 462.2712,-122 462.2712,-86 589.7288,-86 589.7288,-122"/>
<text text-anchor="middle" x="526" y="-99.8" font-family="Times,serif" font-size="14.00" fill="#000000">PostListComponent</text>
</g>
<!-- PostListComponent&#45;&gt;PostModule -->
<g id="edge5" class="edge">
<title>PostListComponent&#45;&gt;PostModule</title>
<path fill="none" stroke="#000000" d="M570.8902,-122.1061C570.8902,-122.1061 570.8902,-140.991 570.8902,-140.991"/>
<polygon fill="#000000" stroke="#000000" points="567.3903,-140.9909 570.8902,-150.991 574.3903,-140.991 567.3903,-140.9909"/>
</g>
<!-- SearchPostComponent -->
<g id="node6" class="node">
<title>SearchPostComponent</title>
<polygon fill="#ffffb3" stroke="#000000" points="444.5379,-122 301.4621,-122 301.4621,-86 444.5379,-86 444.5379,-122"/>
<text text-anchor="middle" x="373" y="-99.8" font-family="Times,serif" font-size="14.00" fill="#000000">SearchPostComponent</text>
</g>
<!-- SearchPostComponent&#45;&gt;PostModule -->
<g id="edge6" class="edge">
<title>SearchPostComponent&#45;&gt;PostModule</title>
<path fill="none" stroke="#000000" d="M434.3612,-122.2396C434.3612,-137.5706 434.3612,-157 434.3612,-157 434.3612,-157 542.0568,-157 542.0568,-157"/>
<polygon fill="#000000" stroke="#000000" points="542.0568,-160.5001 552.0568,-157 542.0567,-153.5001 542.0568,-160.5001"/>
</g>
<!-- EditPostComponent  -->
<g id="node10" class="node">
<title>EditPostComponent </title>
<polygon fill="#fb8072" stroke="#000000" points="1053.2843,-252 920.7157,-252 920.7157,-216 1053.2843,-216 1053.2843,-252"/>
<text text-anchor="middle" x="987" y="-229.8" font-family="Times,serif" font-size="14.00" fill="#000000">EditPostComponent </text>
</g>
<!-- PostModule&#45;&gt;EditPostComponent  -->
<g id="edge9" class="edge">
<title>PostModule&#45;&gt;EditPostComponent </title>
<path fill="none" stroke="#000000" stroke-dasharray="5,2" d="M635.8039,-175C741.325,-175 1010.115,-175 1010.115,-175 1010.115,-175 1010.115,-205.9775 1010.115,-205.9775"/>
<polygon fill="#000000" stroke="#000000" points="1006.6151,-205.9774 1010.115,-215.9775 1013.6151,-205.9775 1006.6151,-205.9774"/>
</g>
<!-- NewPostComponent  -->
<g id="node11" class="node">
<title>NewPostComponent </title>
<polygon fill="#fb8072" stroke="#000000" points="902.8785,-252 767.1215,-252 767.1215,-216 902.8785,-216 902.8785,-252"/>
<text text-anchor="middle" x="835" y="-229.8" font-family="Times,serif" font-size="14.00" fill="#000000">NewPostComponent </text>
</g>
<!-- PostModule&#45;&gt;NewPostComponent  -->
<g id="edge10" class="edge">
<title>PostModule&#45;&gt;NewPostComponent </title>
<path fill="none" stroke="#000000" stroke-dasharray="5,2" d="M635.8584,-181C699.2853,-181 812.437,-181 812.437,-181 812.437,-181 812.437,-205.7604 812.437,-205.7604"/>
<polygon fill="#000000" stroke="#000000" points="808.9371,-205.7604 812.437,-215.7604 815.9371,-205.7604 808.9371,-205.7604"/>
</g>
<!-- PostDetailsComponent  -->
<g id="node12" class="node">
<title>PostDetailsComponent </title>
<polygon fill="#fb8072" stroke="#000000" points="749.1029,-252 600.8971,-252 600.8971,-216 749.1029,-216 749.1029,-252"/>
<text text-anchor="middle" x="675" y="-229.8" font-family="Times,serif" font-size="14.00" fill="#000000">PostDetailsComponent </text>
</g>
<!-- PostModule&#45;&gt;PostDetailsComponent  -->
<g id="edge11" class="edge">
<title>PostModule&#45;&gt;PostDetailsComponent </title>
<path fill="none" stroke="#000000" stroke-dasharray="5,2" d="M618.2663,-187.1061C618.2663,-187.1061 618.2663,-205.991 618.2663,-205.991"/>
<polygon fill="#000000" stroke="#000000" points="614.7664,-205.9909 618.2663,-215.991 621.7664,-205.991 614.7664,-205.9909"/>
</g>
<!-- PostFormComponent  -->
<g id="node13" class="node">
<title>PostFormComponent </title>
<polygon fill="#fb8072" stroke="#000000" points="582.7843,-252 443.2157,-252 443.2157,-216 582.7843,-216 582.7843,-252"/>
<text text-anchor="middle" x="513" y="-229.8" font-family="Times,serif" font-size="14.00" fill="#000000">PostFormComponent </text>
</g>
<!-- PostModule&#45;&gt;PostFormComponent  -->
<g id="edge12" class="edge">
<title>PostModule&#45;&gt;PostFormComponent </title>
<path fill="none" stroke="#000000" stroke-dasharray="5,2" d="M567.4041,-187.1061C567.4041,-187.1061 567.4041,-205.991 567.4041,-205.991"/>
<polygon fill="#000000" stroke="#000000" points="563.9042,-205.9909 567.4041,-215.991 570.9042,-205.991 563.9042,-205.9909"/>
</g>
<!-- PostListComponent  -->
<g id="node14" class="node">
<title>PostListComponent </title>
<polygon fill="#fb8072" stroke="#000000" points="425.2289,-252 294.7711,-252 294.7711,-216 425.2289,-216 425.2289,-252"/>
<text text-anchor="middle" x="360" y="-229.8" font-family="Times,serif" font-size="14.00" fill="#000000">PostListComponent </text>
</g>
<!-- PostModule&#45;&gt;PostListComponent  -->
<g id="edge13" class="edge">
<title>PostModule&#45;&gt;PostListComponent </title>
<path fill="none" stroke="#000000" stroke-dasharray="5,2" d="M552.2216,-181C485.7396,-181 363.2979,-181 363.2979,-181 363.2979,-181 363.2979,-205.7604 363.2979,-205.7604"/>
<polygon fill="#000000" stroke="#000000" points="359.7979,-205.7604 363.2979,-215.7604 366.7979,-205.7604 359.7979,-205.7604"/>
</g>
<!-- SearchPostComponent  -->
<g id="node15" class="node">
<title>SearchPostComponent </title>
<polygon fill="#fb8072" stroke="#000000" points="276.5372,-252 129.4628,-252 129.4628,-216 276.5372,-216 276.5372,-252"/>
<text text-anchor="middle" x="203" y="-229.8" font-family="Times,serif" font-size="14.00" fill="#000000">SearchPostComponent </text>
</g>
<!-- PostModule&#45;&gt;SearchPostComponent  -->
<g id="edge14" class="edge">
<title>PostModule&#45;&gt;SearchPostComponent </title>
<path fill="none" stroke="#000000" stroke-dasharray="5,2" d="M552.0923,-175C451.7251,-175 205.8493,-175 205.8493,-175 205.8493,-175 205.8493,-205.9775 205.8493,-205.9775"/>
<polygon fill="#000000" stroke="#000000" points="202.3494,-205.9774 205.8493,-215.9775 209.3494,-205.9775 202.3494,-205.9774"/>
</g>
<!-- MaterialModule -->
<g id="node8" class="node">
<title>MaterialModule</title>
<polygon fill="#8dd3c7" stroke="#000000" points="277.4706,-122 274.4706,-126 253.4706,-126 250.4706,-122 170.5294,-122 170.5294,-86 277.4706,-86 277.4706,-122"/>
<text text-anchor="middle" x="224" y="-99.8" font-family="Times,serif" font-size="14.00" fill="#000000">MaterialModule</text>
</g>
<!-- MaterialModule&#45;&gt;PostModule -->
<g id="edge7" class="edge">
<title>MaterialModule&#45;&gt;PostModule</title>
<path fill="none" stroke="#000000" d="M241.184,-122.0225C241.184,-139.3734 241.184,-163 241.184,-163 241.184,-163 542.1419,-163 542.1419,-163"/>
<polygon fill="#000000" stroke="#000000" points="542.1419,-166.5001 552.1419,-163 542.1418,-159.5001 542.1419,-166.5001"/>
</g>
<!-- PostRoutingModule -->
<g id="node9" class="node">
<title>PostRoutingModule</title>
<polygon fill="#8dd3c7" stroke="#000000" points="152.2856,-122 149.2856,-126 128.2856,-126 125.2856,-122 23.7144,-122 23.7144,-86 152.2856,-86 152.2856,-122"/>
<text text-anchor="middle" x="88" y="-99.8" font-family="Times,serif" font-size="14.00" fill="#000000">PostRoutingModule</text>
</g>
<!-- PostRoutingModule&#45;&gt;PostModule -->
<g id="edge8" class="edge">
<title>PostRoutingModule&#45;&gt;PostModule</title>
<path fill="none" stroke="#000000" d="M140.9371,-122.1061C140.9371,-141.3391 140.9371,-169 140.9371,-169 140.9371,-169 542.189,-169 542.189,-169"/>
<polygon fill="#000000" stroke="#000000" points="542.189,-172.5001 552.189,-169 542.189,-165.5001 542.189,-172.5001"/>
</g>
</g>
</svg>
